<svg width="47" height="47" fill="none" xmlns="http://www.w3.org/2000/svg"><circle cx="23.15" cy="23.85" r="23.15" fill="#FDEAEC"/><ellipse cx="19.534" cy="23.269" rx="9.745" ry="4.263" fill="#FFAABD" fill-opacity=".79"/><path fill-rule="evenodd" clip-rule="evenodd" d="M28.875 26.315c-1.198 1.76-4.927 3.045-9.341 3.045-4.415 0-8.143-1.284-9.341-3.045-.263.386-.404.794-.404 1.218 0 2.354 4.363 4.263 9.745 4.263 5.382 0 9.744-1.909 9.744-4.263 0-.424-.14-.832-.403-1.218z" fill="#FFAABD" fill-opacity=".79"/><path fill-rule="evenodd" clip-rule="evenodd" d="M28.875 30.321c-1.198 1.761-4.927 3.045-9.341 3.045-4.415 0-8.143-1.284-9.341-3.045-.263.386-.404.795-.404 1.218 0 2.355 4.363 4.263 9.745 4.263 5.382 0 9.744-1.908 9.744-4.263 0-.423-.14-.832-.403-1.218z" fill="#FFAABD" fill-opacity=".79"/><circle cx="30.542" cy="19.202" r="7.304" fill="#FF5379"/><path d="M30.542 14.525v5.38L33.04 22.4" stroke="#FDEAEC"/></svg>