<svg width="47" height="47" fill="none" xmlns="http://www.w3.org/2000/svg"><circle cx="23.3" cy="23.808" r="23.148" fill="#FDEAEC"/><ellipse cx="28.198" cy="14.884" rx="7.427" ry="3.249" fill="#FF5379"/><path fill-rule="evenodd" clip-rule="evenodd" d="M35.318 17.205c-.913 1.342-3.755 2.321-7.12 2.321-3.364 0-6.206-.979-7.12-2.321-.2.294-.307.606-.307.928 0 1.795 3.325 3.25 7.427 3.25 4.102 0 7.428-1.455 7.428-3.25 0-.322-.108-.634-.308-.928z" fill="#FFAABD" fill-opacity=".79"/><path fill-rule="evenodd" clip-rule="evenodd" d="M35.318 20.26c-.913 1.341-3.755 2.32-7.12 2.32-3.364 0-6.206-.978-7.12-2.32-.2.293-.307.605-.307.927 0 1.795 3.325 3.25 7.427 3.25 4.102 0 7.428-1.455 7.428-3.25 0-.322-.108-.634-.308-.928z" fill="#FFAABD" fill-opacity=".79"/><ellipse cx="15.007" cy="22.116" rx="7.427" ry="3.249" fill="#FF5379"/><path fill-rule="evenodd" clip-rule="evenodd" d="M22.127 24.436c-.913 1.343-3.755 2.322-7.12 2.322-3.364 0-6.207-.98-7.12-2.322a1.64 1.64 0 00-.307.929c0 1.794 3.325 3.25 7.427 3.25 4.102 0 7.428-1.456 7.428-3.25 0-.323-.108-.634-.308-.928z" fill="#FFAABD" fill-opacity=".79"/><path fill-rule="evenodd" clip-rule="evenodd" d="M22.127 27.49c-.913 1.343-3.755 2.322-7.12 2.322-3.364 0-6.207-.98-7.12-2.321-.2.294-.307.605-.307.928 0 1.794 3.325 3.25 7.427 3.25 4.102 0 7.428-1.456 7.428-3.25 0-.323-.108-.634-.308-.928z" fill="#FFAABD" fill-opacity=".79"/><ellipse cx="29.015" cy="26.428" rx="7.427" ry="3.249" fill="#FF5379"/><path fill-rule="evenodd" clip-rule="evenodd" d="M36.135 28.749c-.913 1.342-3.755 2.321-7.12 2.321-3.364 0-6.207-.979-7.12-2.321-.2.294-.307.606-.307.928 0 1.795 3.325 3.25 7.427 3.25 4.102 0 7.428-1.455 7.428-3.25 0-.322-.108-.634-.308-.928z" fill="#FFAABD" fill-opacity=".79"/><path fill-rule="evenodd" clip-rule="evenodd" d="M36.135 31.803c-.913 1.342-3.755 2.32-7.12 2.32-3.364 0-6.207-.978-7.12-2.32-.2.294-.307.605-.307.928 0 1.795 3.325 3.25 7.427 3.25 4.102 0 7.428-1.455 7.428-3.25 0-.323-.108-.634-.308-.928z" fill="#FFAABD" fill-opacity=".79"/></svg>