<svg width="47" height="47" fill="none" xmlns="http://www.w3.org/2000/svg"><circle cx="23.5" cy="23.808" r="23.148" fill="#FDEAEC"/><ellipse cx="23.5" cy="18.903" rx="11.557" ry="5.056" fill="#FF5379"/><path fill-rule="evenodd" clip-rule="evenodd" d="M34.579 22.515c-1.42 2.09-5.843 3.612-11.079 3.612-5.235 0-9.658-1.523-11.079-3.612-.311.458-.478.943-.478 1.445 0 2.793 5.174 5.056 11.557 5.056s11.558-2.263 11.558-5.056c0-.502-.168-.987-.479-1.445z" fill="#FFAABD" fill-opacity=".79"/><path fill-rule="evenodd" clip-rule="evenodd" d="M34.579 27.267c-1.42 2.09-5.843 3.612-11.079 3.612-5.235 0-9.658-1.523-11.079-3.612-.311.458-.478.943-.478 1.445 0 2.793 5.174 5.057 11.557 5.057s11.558-2.264 11.558-5.057c0-.502-.168-.987-.479-1.445z" fill="#FFAABD" fill-opacity=".79"/></svg>