<svg width="48" height="47" fill="none" xmlns="http://www.w3.org/2000/svg"><circle cx="23.9" cy="23.808" r="23.148" fill="#FEE7EC"/><path fill-rule="evenodd" clip-rule="evenodd" d="M21.472 26.072c.953-1.45 2.592-2.568 5.142-2.568h6.595c1.303 0 2.876.36 4.14 1.41 1.293 1.076 2.156 2.787 2.156 5.263a.863.863 0 01-.863.864H21.215a.863.863 0 01-.862-.828c-.046-1.1.2-2.744 1.119-4.141zM25.847 17.778a4.131 4.131 0 118.263 0 4.131 4.131 0 01-8.263 0z" fill="#FFAABD" fill-opacity=".79"/><path fill-rule="evenodd" clip-rule="evenodd" d="M10.847 28.998c.954-1.45 2.592-2.568 5.142-2.568h6.595c1.304 0 2.877.36 4.14 1.41 1.293 1.076 2.156 2.787 2.156 5.263a.863.863 0 01-.863.864H10.591a.863.863 0 01-.863-.828c-.045-1.1.2-2.744 1.12-4.141zM15.222 20.704a4.132 4.132 0 118.263 0 4.132 4.132 0 01-8.263 0z" fill="#FF5379"/></svg>